<svg width="16" height="18" viewBox="0 0 16 18" fill="none" xmlns="http://www.w3.org/2000/svg">
<path d="M9.46801 12.5217C8.81482 12.5217 8.30606 12.4587 8.16163 12.4378C7.82684 12.3874 7.58394 12.0053 7.62333 11.577C7.65944 11.1487 7.95813 10.8422 8.29621 10.8884C9.81593 11.1025 12.1464 10.9177 12.5534 9.83442C12.6978 9.44812 13.0622 9.28016 13.3674 9.46911C13.6727 9.65387 13.8007 10.1241 13.653 10.5104C13.0064 12.2194 10.8893 12.5217 9.46801 12.5217Z" fill="#86784B"/>
<path d="M15.3568 11.7391C15.0026 11.7391 14.7171 11.4286 14.7171 11.0433V8.64536L13.8607 8.31241C13.6062 8.21515 13.4342 7.94954 13.4342 7.65774C13.4342 4.20484 10.8512 1.39538 7.6767 1.39538C4.50215 1.39538 1.91917 4.20484 1.91917 7.65774C1.91917 7.8822 1.81943 8.09169 1.6509 8.22263L1.27945 8.51068V11.0396C1.27945 11.4249 0.993981 11.7354 0.639725 11.7354C0.285469 11.7354 0 11.4249 0 11.0396V8.15155C0 7.92709 0.0997422 7.7176 0.268272 7.58667L0.646604 7.29113C0.822012 3.23967 3.90714 0 7.6767 0C11.405 0.00374093 14.466 3.17233 14.7034 7.16394L15.5735 7.50062C15.828 7.59789 16 7.8635 16 8.15529V11.0433C15.9966 11.4286 15.7111 11.7391 15.3568 11.7391Z" fill="#86784B"/>
<path d="M10.199 14.4774V14.2851C10.7479 13.8491 11.1858 13.4268 11.4451 12.8328C10.8759 12.9255 10.2394 12.8912 9.72744 12.8912C9.101 12.8912 8.5655 12.9084 8.23881 12.8706C7.55174 12.7916 7.05666 12.0981 7.13075 11.3977C7.20821 10.6973 7.83128 10.1857 8.51498 10.2681C9.90931 10.4192 11.4485 10.2544 12.0648 9.99002C12.0917 9.40635 12.085 8.79179 12.085 8.32485C12.085 5.59192 10.4549 3.97139 7.84139 3.91302C7.82792 3.91302 7.47428 3.91302 7.46081 3.91302C4.84728 3.96796 3.28119 5.60909 3.28119 8.34546C3.28119 10.0347 3.30813 12.7916 5.18745 14.2886V14.4808C2.68169 14.8791 0.761963 15.9297 0.761963 17.3167C0.761963 17.6704 1.05161 18 1.3985 18H13.6949C14.0418 18 14.4762 17.6704 14.4762 17.3167C14.4796 15.9263 12.7081 14.8791 10.199 14.4774Z" fill="#86784B"/>
</svg>
