<svg width="21" height="21" viewBox="0 0 21 21" fill="none" xmlns="http://www.w3.org/2000/svg">
<path d="M3.90858 19.6983C3.54523 19.6983 3.25244 19.4055 3.25244 19.0422C3.25244 17.617 4.93512 16.5869 7.89481 16.1742V15.9767C5.88758 14.4386 5.88758 11.5883 5.88758 9.85268C5.88758 6.98825 7.57379 5.27734 10.3959 5.27734H10.5476C13.3697 5.27734 15.0559 6.98825 15.0559 9.85268C15.0559 10.0643 15.0524 10.276 15.0488 10.4947C15.0383 10.8581 14.7419 11.1438 14.3751 11.1332C14.0117 11.1226 13.726 10.8228 13.7366 10.4594C13.7436 10.2548 13.7436 10.0538 13.7436 9.85268C13.7436 7.68672 12.6677 6.58962 10.5476 6.58962H10.3959C8.27579 6.58962 7.19986 7.68672 7.19986 9.85268C7.19986 11.9481 7.33039 14.0823 8.90371 15.0842C9.0942 15.2041 9.20709 15.4122 9.20709 15.638V16.7563C9.20709 17.0914 8.9531 17.3736 8.6215 17.4089C5.98636 17.6876 4.56472 18.4601 4.56472 19.0422C4.56472 19.402 4.2684 19.6983 3.90858 19.6983Z" fill="#C4C4C4"/>
<path d="M17.0984 19.6983C16.7351 19.6983 16.4423 19.4055 16.4423 19.0422C16.4423 18.4566 15.0206 17.6876 12.3855 17.4089C12.0504 17.3736 11.7964 17.0914 11.7964 16.7563V15.6345C11.7964 15.2711 12.0892 14.9783 12.4525 14.9783C12.8159 14.9783 13.1087 15.2711 13.1087 15.6345V16.1742C16.0683 16.5834 17.751 17.617 17.751 19.0422C17.7546 19.402 17.4618 19.6983 17.0984 19.6983Z" fill="#C4C4C4"/>
<path d="M12.5549 13.8107C11.6518 13.8107 10.978 13.719 10.9604 13.7154C10.6358 13.6167 10.4418 13.2886 10.5124 12.9535C10.5794 12.6219 10.8898 12.4032 11.2285 12.4349C12.8653 12.6148 15.3629 12.4596 15.8003 11.5495C15.9555 11.2249 16.3471 11.0838 16.6751 11.2426C17.0032 11.3978 17.1408 11.7929 16.982 12.1174C16.2977 13.5426 14.0964 13.8107 12.5549 13.8107Z" fill="#C4C4C4"/>
<path d="M18.3754 13.1228C18.012 13.1228 17.7193 12.83 17.7193 12.4667V10.1737L16.8409 9.85974C16.5798 9.76802 16.4034 9.51755 16.4034 9.2424C16.4034 5.95112 13.7542 3.27012 10.4982 3.27012C7.24218 3.27012 4.59293 5.95112 4.59293 9.2424C4.59293 9.45406 4.49063 9.6516 4.31778 9.77507L3.93679 10.0467V12.4667C3.93679 12.83 3.644 13.1228 3.28065 13.1228C2.91731 13.1228 2.62451 12.83 2.62451 12.4667V9.71157C2.62451 9.49992 2.72681 9.30237 2.89967 9.1789L3.28771 8.90022C3.46762 5.04452 6.6319 1.96136 10.4982 1.96136C14.3221 1.96136 17.4617 4.97749 17.7016 8.77675L18.5941 9.09424C18.8552 9.18596 19.0315 9.43642 19.0315 9.71157V12.4667C19.0315 12.83 18.7387 13.1228 18.3754 13.1228Z" fill="#C4C4C4"/>
</svg>
