<svg width="20" height="22" viewBox="0 0 20 22" fill="none" xmlns="http://www.w3.org/2000/svg">
<path d="M8.9695 1.40851C8.9695 1.40908 8.97018 1.40937 8.97059 1.40898C9.24897 1.14633 9.61723 1 10 1C10.3833 1 10.752 1.14671 11.0305 1.41001L18.2965 8.27851C18.7465 8.70301 19 9.29551 19 9.91351V18.2685C19 18.8653 18.7629 19.4375 18.341 19.8595C17.919 20.2815 17.3467 20.5185 16.75 20.5185H13.75C13.4544 20.5185 13.1617 20.4603 12.8886 20.3471C12.6155 20.2339 12.3674 20.0681 12.1585 19.859C11.9495 19.6499 11.7838 19.4017 11.6708 19.1285C11.5579 18.8554 11.4998 18.5626 11.5 18.267V14.517C11.5 14.3181 11.421 14.1273 11.2803 13.9867C11.1397 13.846 10.9489 13.767 10.75 13.767H9.25C9.05109 13.767 8.86032 13.846 8.71967 13.9867C8.57902 14.1273 8.5 14.3181 8.5 14.517V18.267C8.5 18.8638 8.26295 19.436 7.84099 19.858C7.41903 20.28 6.84674 20.517 6.25 20.517H3.25C2.65326 20.517 2.08097 20.28 1.65901 19.858C1.23705 19.436 1 18.8638 1 18.267V9.91201C1 9.29401 1.255 8.70151 1.705 8.27701L8.96841 1.40804C8.96882 1.40766 8.9695 1.40795 8.9695 1.40851V1.40851Z" stroke="#C4C4C4" stroke-width="1.5"/>
</svg>
