<svg width="22" height="22" viewBox="0 0 22 22" fill="none" xmlns="http://www.w3.org/2000/svg">
<path fill-rule="evenodd" clip-rule="evenodd" d="M1.5 10.75C1.5 5.64137 5.64137 1.5 10.75 1.5C15.8586 1.5 20 5.64137 20 10.75C20 15.8586 15.8586 20 10.75 20C5.64137 20 1.5 15.8586 1.5 10.75ZM10.75 0C4.81294 0 0 4.81294 0 10.75C0 16.6871 4.81294 21.5 10.75 21.5C16.6871 21.5 21.5 16.6871 21.5 10.75C21.5 4.81294 16.6871 0 10.75 0ZM10.7159 6.00882C10.1825 5.86588 9.63412 6.18246 9.49118 6.71593C9.34824 7.24939 9.66482 7.79773 10.1983 7.94067C10.3035 7.96887 10.3222 8.11026 10.2278 8.16475L6.61603 10.25C6.13773 10.5261 5.97386 11.1377 6.25 11.616C6.52614 12.0943 7.13773 12.2582 7.61603 11.9821L12.8122 8.98205C13.138 8.79394 13.3179 8.45017 13.3122 8.09892C13.3103 7.98199 13.3246 7.86416 13.3549 7.7512C13.4978 7.21774 13.1812 6.6694 12.6478 6.52646L10.7159 6.00882ZM8.25 14.616C8.1576 14.456 8.11447 14.281 8.11589 14.1087C8.10394 13.9912 8.11274 13.8696 8.14512 13.7488C8.15404 13.7155 8.16454 13.6831 8.17651 13.6515C8.43978 12.9581 9.36396 12.8182 10.0063 12.4473L13.8122 10.25C14.2905 9.97386 14.9021 10.1377 15.1782 10.616C15.4543 11.0943 15.2905 11.7059 14.8122 11.9821L12.6656 13.2214C12.1933 13.494 12.15 14.2573 12.0088 14.7841C11.8659 15.3175 11.3175 15.6341 10.7841 15.4912L10.4419 15.3995C9.69889 15.2004 8.72327 15.3157 8.29017 14.68C8.2761 14.6593 8.2627 14.638 8.25 14.616Z" fill="#C4C4C4"/>
</svg>
