<svg width="21" height="21" viewBox="0 0 21 21" fill="none" xmlns="http://www.w3.org/2000/svg">
<path d="M20.75 10.75C20.75 16.2728 16.2728 20.75 10.75 20.75C5.22715 20.75 0.75 16.2728 0.75 10.75C0.75 5.22715 5.22715 0.75 10.75 0.75C16.2728 0.75 20.75 5.22715 20.75 10.75Z" fill="#86784B"/>
<path fill-rule="evenodd" clip-rule="evenodd" d="M9.49129 6.71592C9.63423 6.18245 10.1826 5.86587 10.716 6.00881L12.6479 6.52645C13.1814 6.66939 13.4979 7.21773 13.355 7.75119C13.3247 7.86415 13.3104 7.98198 13.3123 8.09891C13.318 8.45016 13.1381 8.79393 12.8123 8.98204L7.61613 11.982C7.13784 12.2582 6.52625 12.0943 6.25011 11.616C5.97397 11.1377 6.13784 10.5261 6.61613 10.25L10.2279 8.16474C10.3223 8.11025 10.3037 7.96887 10.1984 7.94066C9.66493 7.79772 9.34835 7.24938 9.49129 6.71592ZM8.116 14.1087C8.11458 14.281 8.15771 14.456 8.25011 14.616C8.2628 14.638 8.27621 14.6593 8.29028 14.68C8.72338 15.3156 9.699 15.2004 10.442 15.3995L10.7842 15.4912C11.3176 15.6341 11.866 15.3175 12.0089 14.7841C12.1501 14.2573 12.1934 13.494 12.6657 13.2214L14.8123 11.982C15.2906 11.7059 15.4545 11.0943 15.1783 10.616C14.9022 10.1377 14.2906 9.97385 13.8123 10.25L10.0064 12.4473C9.36407 12.8182 8.43989 12.9581 8.17662 13.6515C8.16464 13.683 8.15414 13.7155 8.14522 13.7488C8.11285 13.8696 8.10405 13.9912 8.116 14.1087Z" fill="white"/>
</svg>
